<?xml version="1.0" encoding="UTF-8"?>
<svg width="3727px" height="1623px" viewBox="0 0 3727 1623" version="1.1" xmlns="http://www.w3.org/2000/svg" xmlns:xlink="http://www.w3.org/1999/xlink">
    <!-- Generator: Sketch 59.1 (86144) - https://sketch.com -->
    <title>4458</title>
    <desc>Created with Sketch.</desc>
    <g id="4458" stroke="none" stroke-width="1" fill="none" fill-rule="evenodd">
        <path d="M2931.16275,457.824263 C2462.23691,457.824263 2206.1901,-155.373265 1556.99355,357.65714 C1395.36188,485.384826 886.028118,116.683266 734.508924,726.852853 C706.238381,840.706229 542.23083,899.254421 361.53314,988.462139 C78.0907426,1128.39562 286.518004,1620.16842 554.289209,1622.51915 C822.059414,1624.86988 2789.31006,1617.83769 2789.31006,1617.83769 C2789.31006,1617.83769 3846.04562,457.824263 2931.16275,457.824263" id="Fill-3" fill="#EBF2F9"></path>
        <path d="M3584.9619,1509.30696 L3590.93029,1505.13498 C3590.93029,1505.13498 3635.74818,1445.5967 3618.46285,1443.56574 C3607.74574,1442.29513 3589.37071,1473.61001 3576.95406,1497.57138 C3575.3445,1495.30031 3573.70494,1493.03923 3572.04539,1490.78816 C3585.07187,1431.99024 3605.20643,1314.98468 3562.50797,1302.74886 C3533.1559,1294.33487 3511.3118,1351.08182 3496.99567,1408.40904 C3441.15076,1356.89458 3388.91488,1324.33912 3388.91488,1324.33912 C3388.91488,1324.33912 3831.09539,956.664511 3500.67468,762.698398 C3170.25397,568.732285 2919.2318,1251.2344 2919.2318,1251.2344 C2919.2318,1251.2344 2693.45281,1041.99503 2477.87107,1119.27173 C2323.48279,1174.60801 2344.03723,1262.86993 2305.42767,1324.7193 C2300.22907,1271.56406 2286.72272,1200.0601 2251.69219,1208.52412 C2212.60275,1217.9686 2257.70056,1300.16764 2287.1726,1347.07992 C2283.33364,1350.69163 2279.08478,1354.14327 2274.37606,1357.43483 C2242.17476,1333.69356 2190.99859,1301.18812 2168.61464,1315.29482 C2140.66219,1332.91319 2175.59275,1355.76404 2249.93266,1370.99127 C2214.39227,1386.57867 2160.43685,1395.86308 2075.33984,1395.61297 C1766.97317,1394.69253 1846.10179,1616.88805 1846.10179,1616.88805 L3629,1621 C3624.69116,1582.00148 3607.85571,1544.17352 3584.9619,1509.30696" id="Fill-4" fill="#ACD29A"></path>
        <path d="M169.833937,1616.97101 L841,1618 C841,1618 792.394818,1579.78756 757.233666,1593.21436 C722.072513,1606.64117 652.784594,1597.34031 643.477113,1569.45771 C634.169631,1541.57512 600.042865,1512.65355 512.138983,1508.52761 C424.236101,1504.39167 384.938401,1553.97294 341.504154,1567.38975 C314.538067,1575.73155 290.370026,1574.51275 275.914619,1572.38484 C258.036931,1508.84729 213.649327,1384.03997 140.75606,1384 C67.7417479,1383.97004 120.049315,1441.34365 149.525341,1459.93537 C167.804178,1471.46404 208.359349,1528.85762 236.536889,1570.7964 C227.601547,1571.93528 219.85965,1573.73351 213.141137,1575.97131 C194.003979,1542.69402 157.795434,1491.91394 115.933775,1494.00188 C53.8785621,1497.09884 95.7652306,1532.73381 128.344417,1551.32554 C145.270749,1560.98604 171.406526,1574.82244 192.61646,1585.89156 C172.426907,1599.62806 169.833937,1616.97101 169.833937,1616.97101" id="Fill-5" fill="#ACD29A"></path>
        <polygon id="Fill-6" fill="#E69D43" points="2855 1620 3309 1620 3309 540 2855 540"></polygon>
        <polyline id="Fill-7" fill="#E68A36" points="2855.00072 935 2708 1060 3180.6095 1060 3309 935 2855.00072 935"></polyline>
        <polyline id="Fill-8" fill="#EBBA56" points="2907.34353 956 2810 1039 3122.98059 1039 3208 956 2907.34353 956"></polyline>
        <polygon id="Fill-9" fill="#E69D43" points="2709 1619 3181 1619 3181 1059 2709 1059"></polygon>
        <polyline id="Fill-10" fill="#CA5F00" points="3309.32 540 3309.32 934.85818 3181 1059.46125 3181 1620 3480 1620 3480 540 3309.32 540"></polyline>
        <polygon id="Fill-11" fill="#CA5F00" points="2969 855 3245 855 3245 649 2969 649"></polygon>
        <polygon id="Fill-12" fill="#EBBA56" points="3019 855 3245 855 3245 649 3019 649"></polygon>
        <polygon id="Fill-13" fill="#CA5F00" points="2750 1120 2870 1120 2870 1102 2750 1102"></polygon>
        <polygon id="Fill-14" fill="#CA5F00" points="3009 1120 3129 1120 3129 1102 3009 1102"></polygon>
        <polygon id="Fill-15" fill="#CA5F00" points="2709 1455 3480 1455 3480 1452 2709 1452"></polygon>
        <polygon id="Fill-16" fill="#CA5F00" points="2709 1165 3480 1165 3480 1162 2709 1162"></polygon>
        <path d="M2119,550.582734 C2119,550.582734 2113.23115,467.719191 2006.24785,499.09383 C1981.97474,506.212884 1985.13863,579.932393 2043.91507,608 L2119,550.582734" id="Fill-17" fill="#2B478B"></path>
        <path d="M2076.33901,659 C2076.33901,659 2118.09327,666.587518 2133.57697,682.132188 C2149.06068,697.676859 2185.59068,743.532638 2162.60394,896.419868 C2162.60394,896.419868 2160.76301,942.504422 2109.14735,946.950038 C2057.54163,951.385664 2076.33901,659 2076.33901,659" id="Fill-18" fill="#B64C41"></path>
        <path d="M1979.3713,1039.96252 C1986.60214,1090.19397 2035.15206,1220.72775 2033.73799,1265.84905 C2032.61475,1301.40008 2033.20646,1383.54246 2037.91001,1438.10403 C2039.20374,1452.94446 2040.73816,1465.67483 2042.67374,1474.9451 C2046.85579,1495.07568 2052.21123,1518.24635 2055.08952,1532.85677 C2061.50802,1565.65772 2058.14834,1584.77828 2063.39345,1602.37879 C2069.16007,1621.62934 2135.35084,1618.09924 2115.40335,1606.4289 C2108.28283,1602.25878 2097.92297,1593.40853 2092.80823,1581.95819 C2074.21464,1540.42699 2100.27976,1361.30181 2108.05216,1292.24982 C2109.04502,1283.61957 2109.75708,1276.75937 2110.04791,1272.06923 C2112.63537,1229.418 2142,945.259782 2142,945.259782 C2070.6945,905.718639 1972.19061,989.741068 1979.3713,1039.96252" id="Fill-19" fill="#D9935C"></path>
        <path d="M1980.36707,1040.02033 C1987.56525,1090.23137 2035.89588,1220.71208 2034.48819,1265.81504 C2033.37003,1301.35162 2033.95906,1383.4606 2038.64137,1438 L2108.46671,1292.20507 C2109.45509,1283.57833 2110.16392,1276.72092 2110.45345,1272.03269 C2113.02922,1229.3988 2143,945.246134 2143,945.246134 C2072.00658,905.721064 1973.2188,989.819297 1980.36707,1040.02033" id="Fill-20" fill="#CB8757"></path>
        <path d="M2134,953.826427 C2134,953.826427 2072.85993,1234.70552 2065.91196,1276.8694 C2058.964,1319.03328 2003.29019,1517.60575 2015.4241,1567.35393 C2022.5823,1596.71056 2035.06661,1605.39548 2035.06661,1605.39548 C2037.99997,1610.76852 1989.64455,1621.46458 1985.74008,1600.86291 C1980.7844,1574.7181 1979.7432,1538.01731 1972.47487,1475.79207 C1959.97054,1368.65138 1984.77897,1307.68685 1990.78586,1262.91149 C1996.80275,1218.13613 1970.59271,1075.81552 1985.13939,1027.17797 C2010.58856,942.059763 2067.28353,907.159995 2134,953.826427" id="Fill-21" fill="#D9935C"></path>
        <path d="M1971.04741,1212.51509 C1971.04741,1212.51509 1986.90687,1214.98353 2010.25719,1216.6225 L2022.95473,1165.61465 L2027.40336,1217.56191 C2064.9075,1219.09094 2113.89229,1217.21213 2150,1202.26155 L2142.21989,945.393449 C2142.21989,945.393449 2089.92356,959.214738 2027.01436,935 C2027.01436,935 1945.20347,998.999662 1971.04741,1212.51509" id="Fill-22" fill="#B64C41"></path>
        <path d="M2045.43459,1617 L1988.6165,1617 C1984.07587,1610.37336 1977.70694,1583.6154 1972.90513,1578.24571 C1972.58367,1577.89377 1972.23207,1577.47143 1971.86038,1576.99882 L1971.37819,1617 L1966.20469,1617 C1966.12433,1610.74542 1965.59191,1579.49261 1962.57822,1562.34781 C1959.47412,1556.415 1957.26408,1550.67325 1958.22846,1548.24985 C1960.23759,1543.20194 1978.79187,1532 1978.79187,1532 C1978.79187,1532 1991.369,1600.4887 1999.04386,1602.41938 C2017.34701,1607.02484 2034.10312,1603.77688 2034.10312,1603.77688 C2034.10312,1603.77688 2042.32045,1607.35668 2044.93231,1611.50964 L2044.93231,1611.5197 C2046.01724,1613.23921 2046.42911,1615.10955 2045.43459,1617" id="Fill-23" fill="#2B478B"></path>
        <path d="M2122.43382,1617 L2065.61614,1617 C2061.12578,1610.51397 2054.85735,1584.59972 2050.06562,1578.88963 L2049.60352,1617 L2044.43006,1617 C2044.42002,1615.89578 2044.38988,1614.02558 2044.32961,1611.5784 L2044.32961,1611.56845 C2044.09856,1601.07342 2043.39537,1580.1928 2041.31594,1566.09664 C2037.35799,1559.2127 2034.09318,1551.82141 2035.22833,1548.98626 C2037.23744,1543.99242 2055.37972,1533 2055.37972,1533 C2055.37972,1533 2068.35858,1600.66556 2076.04343,1602.57556 C2094.34644,1607.13169 2112.76999,1604.30649 2112.76999,1604.30649 C2112.76999,1604.30649 2125.83926,1610.60351 2122.43382,1617" id="Fill-24" fill="#2B478B"></path>
        <path d="M2143.41984,947.110647 C2143.41984,947.110647 2168.31015,862.239179 2160.47376,780.50496 C2152.62735,698.773736 2090.1864,657 2090.1864,657 C2090.1864,657 2025.86392,662.398824 2017.57716,680.357626 C2009.29039,698.315431 2037.07306,902.568104 2022.44113,938.204135 C2022.44113,938.204135 2070.64046,971.403856 2143.41984,947.110647" id="Fill-25" fill="#E7F0FD"></path>
        <path d="M2100.96439,665.124128 C2100.95432,665.094143 2100.95432,665.074153 2100.95432,665.074153 C2098.25596,653.020253 2098.61843,641.54606 2099.18227,635.149297 L2099.18227,635.139302 C2099.46419,631.860961 2099.79645,629.911948 2099.79645,629.911948 L2099.18227,629.722044 L2047.1885,614 C2046.43336,630.391705 2045.47685,642.545554 2044.45993,651.560992 C2043.97665,655.828832 2043.49336,659.397026 2043,662.365524 C2053.05844,666.723319 2061.38509,669.731796 2068.26188,671.72079 C2086.90876,677.098068 2094.9837,674.959151 2098.44727,671.72079 C2101.33693,669.042145 2101.01474,665.59389 2100.96439,665.124128" id="Fill-26" fill="#D9935C"></path>
        <path d="M2099,629.903614 L2099,635.395604 C2099,635.395604 2064.79172,635.789984 2045,652 C2046.0035,642.877694 2046.94738,630.585183 2047.69255,614 L2099,629.903614" id="Fill-27" fill="#CB8757"></path>
        <path d="M2114.08993,634.079263 C2114.08993,634.079263 2051.22661,646.620252 2043.9604,607.611717 C2036.70423,568.603181 2023.69942,543.949451 2063.53798,534.293399 C2103.36648,524.637346 2113.95928,538.085743 2119.56723,550.520918 C2125.18523,562.956093 2130.26052,629.811753 2114.08993,634.079263" id="Fill-28" fill="#D9935C"></path>
        <path d="M2094.9266,521.127982 C2089.62043,521.250498 2085.73861,521.565254 2082.9802,522.01647 C2069.19821,517.658699 2042.87801,514.201368 2021.89407,540.361937 C1992.04311,577.568833 2056.46942,640 2056.46942,640 C2047.87323,628.648879 2045.38565,588.289447 2077.75428,568.109233 C2097.8154,555.599692 2098.62788,542.365018 2096.34091,534.110653 C2096.90262,534.277991 2097.23363,534.371621 2097.23363,534.371621 C2097.23363,534.371621 2123.08239,537.524157 2124.56692,567.162975 C2124.56692,567.162975 2135.88139,520.18272 2094.9266,521.127982" id="Fill-29" fill="#2B478B"></path>
        <path d="M1985,952.749633 C2006.4278,957.146618 2040.63045,954.918146 2065.98053,947.653128 C2074.41392,945.244779 2081.84928,942.256828 2087.46822,938.799199 C2110.13358,924.848765 2121.1419,821.539604 2117.21963,782.437416 C2113.34725,743.390191 2043.76428,662 2043.76428,662 C2027.656,673.959799 2024.46229,702.995889 2014.80131,739.520844 C1991.55709,827.405581 1985,952.749633 1985,952.749633" id="Fill-30" fill="#B64C41"></path>
        <path d="M1985,952.744194 C2006.52439,957.151807 2040.88121,954.917948 2066.34556,947.635369 C2075.6992,934.352426 2083.16807,918.134413 2087.16818,898.330206 C2098.75747,841.201529 2053.05197,779.199435 2014.93565,739 C1991.58664,827.097167 1985,952.744194 1985,952.744194" id="Fill-31" fill="#AA413E"></path>
        <path d="M1997.80787,929.774665 L2048.37771,966.354748 C2054.62522,970.883425 2063.44171,969.45068 2067.95991,963.178663 L2124.35743,884.858611 C2128.87562,878.586595 2127.45619,869.749664 2121.19868,865.231007 L2070.62884,828.640904 C2064.37134,824.122247 2055.55485,825.544973 2051.03665,831.816989 L1994.63913,910.137042 C1990.12093,916.409058 1991.55036,925.245989 1997.80787,929.774665" id="Fill-32" fill="#233862"></path>
        <path d="M2076.39852,904.757488 C2076.39852,904.757488 2100.86197,902.209635 2103.89021,906.459453 C2106.91845,910.709271 2104.16731,927.127632 2090.42146,928.829597 C2076.66571,930.531562 2061,918.923547 2061,918.923547 L2076.39852,904.757488" id="Fill-33" fill="#DA935B"></path>
        <path d="M2044.06943,661 C2044.06943,661 2004.1549,667.391601 1985.1494,707.065613 C1966.1439,746.738624 1945.68334,848.859984 1950.79599,858.407313 C1955.90864,867.96466 2017.31025,919.387999 2067.7391,926 C2067.7391,926 2078.70189,912.04467 2077.96439,899.551994 C2077.96439,899.551994 2009.99507,856.944658 2004.1549,845.18331 C1998.30475,833.43198 2056.03881,735.71762 2055.31127,718.819949 C2054.58374,701.922278 2044.06943,661 2044.06943,661" id="Fill-34" fill="#B64C41"></path>
        <path d="M593,1617 L491.230899,1617 C490.799844,1616.89961 490.448985,1616.77915 490.188347,1616.65869 C487.331354,1615.30349 485.957992,1609.94293 485.376569,1603.59859 C484.313968,1592.12457 485.837698,1577.42818 485.837698,1577.42818 C485.837698,1577.42818 520.532621,1548.41688 525.835601,1569.95953 C531.138581,1591.50218 560.009248,1600.61715 576.389342,1602.926 C591.676761,1605.07425 592.909779,1615.61469 593,1617" id="Fill-35" fill="#233862"></path>
        <path d="M502,1617 L395.176936,1617 C388.418762,1610.90662 391.892683,1577.42818 391.892683,1577.42818 C391.892683,1577.42818 426.442223,1548.41688 431.722982,1569.95953 C437.003741,1591.50218 465.75343,1600.61715 482.054903,1602.926 C483.252807,1603.09666 484.390815,1603.31751 485.458946,1603.59859 C496.220115,1606.35918 500.652358,1614.01856 502,1617" id="Fill-36" fill="#233862"></path>
        <path d="M441,1036 C441,1036 441.081995,1039.88123 441.233986,1046.85345 C442.202927,1091.81774 446.044695,1265.64297 449.687475,1362.55377 C449.839466,1366.08489 449.967458,1369.49597 450.095451,1372.81703 C450.166446,1374.56759 450.236442,1376.32815 450.306438,1378.0687 C452.489306,1424.92359 458.841922,1470.79817 465.263534,1507.48982 C473.44804,1554.28469 481.761538,1586.14482 481.761538,1586.14482 C512.965653,1592.46683 533.188432,1580.60306 533.188432,1580.60306 C533.188432,1580.60306 541.601923,1507.97998 544.80173,1464.02601 C545.852667,1449.76148 550.990356,1401.10602 557.434967,1341.90721 C562.432665,1296.13266 568.212316,1244.04611 573.512996,1196.68106 C573.793979,1194.16026 574.061963,1191.63946 574.353945,1189.14867 C582.912428,1112.57433 590,1050.19451 590,1050.19451 L534.830332,1044.94284 L441,1036" id="Fill-37" fill="#2B478B"></path>
        <path d="M465.067343,1507 L557.383747,1341.61319 C562.389306,1295.89278 568.178047,1243.86782 573.487064,1196.55878 C573.768489,1194.04096 574.036895,1191.52314 574.329336,1189.03529 C582.90128,1112.55151 590,1050.24546 590,1050.24546 L534.743559,1045 L441,1046.90835 L465.067343,1507" id="Fill-38" fill="#233862"></path>
        <path d="M580,1050.33289 C580,1050.33289 528.296218,1305.3309 486.167284,1428.39408 C444.03835,1551.46725 443.513042,1585.65369 443.513042,1585.65369 C443.513042,1585.65369 404.855755,1594.01526 387.824334,1584.30343 C387.824334,1584.30343 378.092093,1351.00951 403.584589,1289.04784 C420.445586,1248.06012 433.34271,1160.83369 428.959793,1129.42778 C424.575874,1098.01187 420.485686,1035 420.485686,1035 L580,1050.33289" id="Fill-39" fill="#2B478B"></path>
        <path d="M517.430524,708 L460,691.786614 C460,691.786614 469.753676,667.892675 473.138422,642.986026 C475.011047,629.159025 474.930935,615.021193 470.134209,604.482994 C469.843802,603.83125 469.523353,603.179506 469.192889,602.547815 C466.999815,598.456868 468.331682,596.581851 471.255782,596.120616 C476.312873,595.308443 486.126633,598.736617 490.662993,602.236983 C490.80319,602.347279 490.933372,602.456571 491.063555,602.567869 C497.652794,608.072599 529.397303,624.215798 531.04962,625.057049 C531.09969,625.078105 531.119718,625.088132 531.119718,625.088132 C531.119718,625.088132 531.169788,625.328776 531.229872,625.779983 L531.239886,625.809061 C531.239886,625.809061 531.259915,625.890278 531.279943,626.030654 C531.460195,627.233874 531.790659,629.479884 532.121122,632.558121 C533.723369,647.899173 535.095292,683.554585 517.430524,708" id="Fill-40" fill="#D9935C"></path>
        <path d="M434.436377,1063.57096 C446.622686,1072.19105 465.824295,1075.29748 486.974153,1074.97784 C511.672646,1074.5783 539.010123,1069.48416 560.860712,1062.95167 C572.615187,1059.43571 582.769278,1055.52021 590.099457,1051.7046 C622.747889,1034.69416 618.113673,1012.05019 617.331974,927.29764 C616.538279,840.787107 563.258789,728.963678 553.664482,710.243202 C536.588055,676.920516 459.976546,689.217377 459.976546,689.217377 C443.168016,697.265124 437.191316,724.103267 435.556946,759.163955 C433.736646,798.108178 437.273285,847.209723 437.273285,891.988238 C437.273285,929.005677 430.281976,961.738042 425.191935,988.876839 C418.597474,1024.12631 415.200781,1049.94662 434.436377,1063.57096" id="Fill-41" fill="#E2923D"></path>
        <path d="M425,989.708201 C439.736107,1020.8213 468.753689,1055.83855 486.756161,1076 C511.444237,1075.59957 538.770184,1070.49414 560.611557,1063.94718 C569.805137,1041.90373 573.830888,1005.10458 565.336744,944.349947 C558.861969,898.040682 511.667057,711.735486 511.667057,711.735486 C473.56081,706.755188 449.863934,727.550311 435.360639,759.486285 C433.541107,798.516806 437.076254,847.727158 437.076254,892.6049 C437.076254,929.704367 430.087894,962.509266 425,989.708201" id="Fill-42" fill="#D88029"></path>
        <path d="M488.202129,1126.37701 C488.202129,1115.60466 496.951867,1106.84088 507.706733,1106.84088 L536.293267,1106.84088 C547.047135,1106.84088 555.796874,1115.60466 555.796874,1126.37701 L555.796874,1137.12938 L488.202129,1137.12938 L488.202129,1126.37701 Z M603.151801,1137.12938 L568.610736,1137.12938 L568.610736,1126.37701 C568.610736,1108.51969 554.112965,1094 536.293267,1094 L507.706733,1094 C489.887035,1094 475.388267,1108.51969 475.388267,1126.37701 L475.388267,1137.12938 L440.847201,1137.12938 C430.48139,1137.12938 422,1145.62334 422,1156.01596 L422,1244.1234 C422,1254.50603 430.48139,1263 440.847201,1263 L603.151801,1263 C613.517612,1263 622,1254.50603 622,1244.1234 L622,1156.01596 C622,1145.62334 613.517612,1137.12938 603.151801,1137.12938 L603.151801,1137.12938 Z" id="Fill-43" fill="#D6716B"></path>
        <path d="M532.355142,1072.23214 C532.355142,1072.23214 552.112337,1110.5764 542.234234,1125.49139 C532.355142,1140.40637 497.077054,1121.23424 494.254174,1112.70996 C491.432283,1104.18569 494.254174,1063 494.254174,1063 L532.355142,1072.23214" id="Fill-44" fill="#DA935B"></path>
        <path d="M447.001579,771.705269 C447.001579,771.705269 454.412376,877.660376 454.318505,921.503454 C454.223636,965.336522 489.025719,1081.93108 489.025719,1081.93108 C489.025719,1081.93108 512.056011,1083.7829 521.092569,1082.61175 C531.505232,1081.27043 537.70969,1076.47572 537.70969,1076.47572 C537.70969,1076.47572 530.066214,938.72037 544.649135,885.91849 C559.233056,833.126619 560,727.07742 560,727.07742 C560,727.07742 551.899153,704.184927 503.406919,711.410026 C445.880123,719.981448 447.001579,771.705269 447.001579,771.705269" id="Fill-45" fill="#E2923D"></path>
        <path d="M470.826887,641 C470.826887,641 457.757137,682.175673 460.337285,689.537762 C460.337285,689.537762 531.234351,699.049576 560,727 C560,727 550.651464,686.8668 539.144804,676.832752 C527.638144,666.799701 470.826887,641 470.826887,641" id="Fill-46" fill="#D88029"></path>
        <path d="M532,633.569791 C525.559612,633.519646 485.424879,633.650024 474.156704,643.197676 C473.746042,643.538664 473.365428,643.809448 473.004847,644 C474.877868,630.169944 474.797738,616.028988 470,605.48846 C470.410662,602.259107 469.529241,598.74894 471.121809,597.124235 C474.707593,593.472659 485.905654,599.571322 490.533118,603.241953 C490.673344,603.352273 490.803554,603.46159 490.933764,603.572912 C497.524394,609.078859 529.275606,625.225624 530.928271,626.067061 L531.108562,626.790156 L531.118578,626.81924 C531.118578,626.81924 531.138611,626.900475 531.158643,627.040882 C531.338934,628.244367 531.669467,630.490874 532,633.569791" id="Fill-47" fill="#CB8757"></path>
        <path d="M558.183773,630.172685 C558.183773,630.172685 492.158062,642.825924 484.92028,601.53982 C477.683494,560.252718 464.286872,534.080482 506.136496,524.255919 C547.985125,514.431356 558.959854,528.7433 564.723181,541.935145 C570.487504,555.126989 575.171889,625.816963 558.183773,630.172685" id="Fill-48" fill="#D9935C"></path>
        <path d="M472.378625,620 C472.378625,620 475.837101,617.372776 462.375432,597.035039 C448.913763,576.698302 442.527572,582.278779 442.363026,560.606928 C442.197477,538.935078 434.108636,525.920967 459.340361,511.813762 C484.571082,497.706557 480.552748,484.635441 495.69098,481.508174 C510.829213,478.380907 532.847274,490.815969 545.837378,488.196745 C558.827482,485.578522 599.525528,538.37503 573.457026,550.871097 C573.457026,550.871097 561.347845,551.472148 552.843626,546.245702 C544.339407,541.019256 513.131853,535.733804 509.483748,545.189612 C505.834639,554.646419 486.068049,612.692376 472.378625,620" id="Fill-49" fill="#233862"></path>
        <path d="M1283.68,1605 L1290,1597.65132 C1290,1597.65132 1254.38,1557.95642 1243.44,1537.75759 L1213.37,1482 L1174,1491.77816 L1223.97,1562.86557 L1283.68,1605" id="Fill-50" fill="#D9935C"></path>
        <path d="M1612.20882,1606.5827 C1611.8187,1610.78452 1609.48798,1613.48569 1605.79683,1615.09639 C1605.78683,1615.1064 1605.76682,1615.1164 1605.73682,1615.1164 C1598.9147,1618.1077 1587.48115,1617.4274 1575.10731,1615.75668 C1573.52682,1615.55659 1572.10638,1615.37651 1570.82598,1615.26646 C1570.49588,1615.23645 1570.15577,1615.20644 1569.83568,1615.18643 C1569.57559,1615.15642 1569.31551,1615.14641 1569.06544,1615.1264 C1556.75162,1614.31605 1557.71191,1618.1077 1534.18461,1617.99765 C1507.36629,1617.84758 1498.29348,1608.81367 1497.0631,1604.962 C1496.03278,1601.70059 1507.77642,1599.16949 1520.91049,1596.24823 C1521.54069,1596.10817 1522.17089,1595.9581 1522.82109,1595.81804 C1524.56163,1595.42787 1526.32217,1595.0277 1528.07272,1594.62752 C1543.72757,1590.95593 1559.22238,1586.31392 1564.35397,1571.27741 C1569.78566,1555.3305 1568.49526,1508 1568.49526,1508 L1616,1508 C1616,1508 1603.52613,1560.28265 1604.83654,1575.34917 C1605.54676,1583.40266 1609.38795,1585.69365 1610.87841,1592.65667 C1610.97844,1593.14688 1611.07847,1593.6371 1611.1685,1594.12731 C1611.88872,1598.19907 1612.59894,1602.38088 1612.20882,1606.5827" id="Fill-51" fill="#AD7041"></path>
        <path d="M990,532 C990,532 1013.94557,505.913497 1044,530.664723 C1044,530.664723 1026.50324,527.568518 990,532" id="Fill-52" fill="#89BCCB"></path>
        <path d="M1668.52409,1094.88865 C1664.49938,1117.39999 1658.76843,1140.66171 1653.7802,1164.8539 C1645.77093,1203.74349 1639.72884,1245.07431 1645.91144,1289.56672 C1646.70434,1295.2896 1647.13591,1301.61279 1647.23628,1308.40621 C1648.43065,1387.04583 1613.18181,1529.56762 1613.18181,1529.56762 C1613.18181,1529.56762 1603.60681,1533.6897 1587.55815,1532.8993 C1579.29796,1532.48909 1566.62163,1527.17642 1566.62163,1527.17642 C1566.62163,1527.17642 1563.28945,1438.8119 1563.08871,1319.98204 C1562.93816,1233.83865 1545.97616,1120.42151 1542.54362,1053.77794 C1540.47606,1013.44763 1544.9725,959.710556 1544.9725,959.710556 C1544.9725,959.710556 1615.23933,903.392186 1640.48159,932.206701 C1665.41272,960.681045 1683.57912,1010.68624 1668.52409,1094.88865" id="Fill-53" fill="#415DA5"></path>
        <path d="M1645.10999,1290.13961 C1645.90503,1295.86884 1646.33777,1302.19904 1646.43841,1309 C1593.66393,1232.91739 1582,1067 1582,1067 L1639.95734,1094.99512 C1639.95734,1094.99512 1646.30758,1126.10525 1653,1165.2884 C1644.9691,1204.22114 1638.9107,1245.59782 1645.10999,1290.13961" id="Fill-54" fill="#355493"></path>
        <path d="M1044.51572,516.251959 C1035.44425,511.084169 1024.56448,510.520537 1016.96163,510.971042 C1018.91979,508.945773 1022.77616,508.207946 1022.77616,508.207946 C1018.06059,507.505159 1007.5305,512.192411 1007.5305,512.192411 C941.932179,486.86403 931.621874,583.647477 933.000578,606.133673 C934.369291,628.616866 910.961302,635.960094 876.834392,653.674944 C811.719622,687.47782 806,732.740538 806,732.740538 C806.507523,733.039873 807.037025,733.382257 807.600495,733.770692 C810.830458,728.285546 817.482203,717.987006 823.08993,716.433265 C822.87713,716.931824 816.462162,730.612153 814.068413,738.451937 C833.278349,753.095345 869.214558,785.540701 894.25701,808.544477 C894.147113,804.04944 894.326944,797.665287 895.965403,794.29451 L899.062491,812.965431 C912.459893,825.310263 921.701203,834 921.701203,834 C920.052753,815.827638 1003.71408,719.939193 1047.36304,691.223017 C1057.99304,675.547452 1061.76949,647.855423 1062.04923,645.67498 C1060.21096,667.631582 1056.46448,679.948383 1053.11763,686.883154 C1090.08287,652.793956 1068.5631,529.944302 1044.51572,516.251959" id="Fill-55" fill="#233862"></path>
        <path d="M1047.99854,693.300598 C1048.21792,693.399266 1023.64775,704.368445 1007.66319,699.952583 C992.62593,695.813593 982.793876,676.126457 983.003281,676.082158 C989.37517,674.804518 991.209954,665.969772 991.070351,628 L993.95216,628.571867 L1042.36455,638.250318 C1042.36455,638.250318 1041.2577,653.63234 1041.22779,668.122329 C1041.19787,680.288604 1045.23639,692.000809 1047.99854,693.300598" id="Fill-56" fill="#D9935C"></path>
        <path d="M1043,638.543747 C1043,638.543747 1041.87971,653.711682 1041.84943,668 C1014.4276,667.239518 999.934501,642.637044 994,629 L1043,638.543747" id="Fill-57" fill="#CB8757"></path>
        <path d="M989.040194,623 C989.040194,623 974.828804,600.449472 971.415675,581.166279 C968.980577,567.399158 975.966513,516.370982 1027.01375,523.719729 C1027.01375,523.719729 1041.83391,525.187473 1055.77585,534.642594 C1066.85354,542.161776 1082.85134,558.396191 1064.96734,602.925789 L1060.3167,617.968163 L989.040194,623" id="Fill-58" fill="#233862"></path>
        <path d="M1236,1517.36126 L1210.22798,1518.15065 L1182.3325,1519 C1182.3325,1519 1117.88743,1447.42516 1081.73849,1332.69357 C1080.89711,1330.02563 1080.00566,1327.3277 1079.06413,1324.58981 C1059.28187,1267.04416 1018.27501,1194.81982 996.659771,1129.4402 C993.22417,1119.01823 990.129124,1109.21578 987.364616,1099.94293 C986.473163,1096.97522 985.611758,1094.05746 984.790419,1091.17968 C968.864453,1035.97223 964.246924,999.730154 960,961 L1116.05444,962.249037 C1116.05444,962.249037 1141.25553,1226.69525 1236,1517.36126" id="Fill-59" fill="#89BCCB"></path>
        <path d="M1105,978.88943 C1105,978.88943 1038.28229,1012.78707 958.983119,987.831446 C958.053012,987.541381 942.951266,812.269857 941.121054,792.130315 C936.280495,738.817293 932,697.005864 932,697.005864 C953.602497,692.088756 964.073708,681.528374 986.566308,673.094472 C991.736906,679.535925 1007.19869,685.753327 1020.92028,685.445257 C1036.71211,685.097179 1041.94271,678.383665 1041.12262,671 C1057.95456,680.367112 1071.2761,689.168097 1071.2761,689.168097 C1085.58776,714.019701 1105,978.88943 1105,978.88943" id="Fill-60" fill="#E7F0FD"></path>
        <path d="M1051.70423,651.99733 C1051.70423,651.99733 987.766121,653.052887 987.716379,613.185703 C987.676585,573.317523 979.389602,546.60397 1020.21767,544.243905 C1061.03579,541.884835 1068.98453,557.088835 1072.23764,570.391838 C1075.48081,583.695837 1068.32794,650.694813 1051.70423,651.99733" id="Fill-61" fill="#D9935C"></path>
        <path d="M1069.88998,547.099 C1059.93633,535.088049 1052.4033,537.699646 1048.17475,541.306329 C1034.22357,520.571402 990.130205,550.557819 990.130205,550.557819 C985.811265,579.25742 965,595.698297 965,595.698297 C965,595.698297 976.771623,602.928646 1003.89055,595.990028 C1025.24419,590.529052 1040.73211,560.305852 1046.36682,547.677468 C1050.20365,551.071346 1058.3092,558.915131 1060.72981,566.597065 C1063.95395,576.782696 1065.40029,597.750409 1071.54725,597.037065 C1071.54725,597.037065 1084.85561,565.141404 1069.88998,547.099" id="Fill-62" fill="#233862"></path>
        <path d="M1310,718.328199 C1310,718.328199 1319.06944,685.856766 1355.00686,690.443975 C1359.13115,691.726762 1371.1837,696.501915 1363.48568,709.316864 C1357.80977,718.764745 1355.34721,713.890152 1346.41791,726.585772 C1337.48862,739.281392 1327.78852,742.149268 1316.71699,740.629811 L1310,718.328199" id="Fill-63" fill="#D9935C"></path>
        <path d="M1003.50486,1594.48782 C1001.31205,1582.47612 997.127624,1561.70775 997.127624,1561.70775 L998.093262,1488 L953,1488 L969.868481,1558.55255 C970.220536,1561.82756 971.145939,1574.52822 966.40828,1588.00769 C966.40828,1588.00769 962.072969,1607.59786 981.506425,1607.95731 C1000.93988,1608.32675 1005.70772,1606.49953 1003.50486,1594.48782" id="Fill-64" fill="#D9935C"></path>
        <path d="M1004.98814,1617 L964.679508,1617 C962.550071,1607.00662 966.105829,1588.50523 966.105829,1588.50523 C988.073179,1608.76481 1001.82412,1588 1001.82412,1588 C1005.20912,1596.19477 1005.01827,1614.9892 1004.98814,1617" id="Fill-65" fill="#B64C41"></path>
        <path d="M1312,1616.83021 L1262.69918,1616.83021 C1258.2555,1613.07476 1254.04202,1605.23427 1248.85772,1594.88681 C1245.94531,1589.07386 1239.41991,1585.87773 1232.71436,1584.11987 L1232.71436,1617 L1222.59598,1617 L1222.54594,1616.83021 L1213.01805,1582.05237 C1206.70282,1570.47641 1211.57686,1560.14893 1216.02054,1551 C1221.19482,1550.99003 1236.0271,1554.35595 1262.3589,1583.96006 C1271.01607,1593.68826 1280.56397,1597.15406 1290.06184,1596.86441 C1290.19194,1596.9543 1290.32205,1597.01423 1290.45216,1597.07416 C1305.68477,1603.91586 1310.48875,1612.34564 1312,1616.83021" id="Fill-66" fill="#B64C41"></path>
        <path d="M1310.30145,718.162842 C1310.30145,718.162842 1268.19341,741.729778 1253.14913,748.523129 C1244.5638,752.393341 1224.83751,761.643289 1210.93128,768.179891 C1202.07641,772.344815 1191.56438,770.069042 1185.19527,762.630323 C1162.37427,735.942442 1103.04567,678.097054 1042,671 C1042,671 1079.01674,762.726229 1080.10488,781.299052 C1081.19302,799.872874 1084.4774,1085.0248 1084.4774,1085.0248 C1084.4774,1085.0248 1082.29114,1098.13197 1107.39823,1092.66732 C1132.50532,1087.20267 1139.06411,1081.74801 1139.06411,1081.74801 C1139.06411,1081.74801 1115.04516,905.850155 1121.59397,844.670031 C1122.88177,832.601842 1121.70378,819.04511 1118.9984,805.044812 C1119.20804,805.174685 1119.41769,805.308554 1119.63731,805.437428 C1156.68399,827.796545 1200.19962,837.746807 1200.19962,837.746807 C1200.19962,837.746807 1228.91055,825.209077 1269.38138,796.652026 C1272.21654,794.649985 1275.12157,792.563028 1278.06654,790.400145 C1292.18242,780.049275 1317,740.571911 1317,740.571911 L1310.30145,718.162842" id="Fill-67" fill="#B64C41"></path>
        <path d="M1210,1519.14916 L1182.15866,1520 C1182.15866,1520 1117.83867,1448.29926 1081.7599,1333.36588 C1080.92016,1330.69324 1080.03043,1327.99057 1079.09073,1325.24787 C1059.34687,1267.601 1018.4196,1195.24962 996.846314,1129.755 C993.417381,1119.31471 990.328342,1109.49502 987.569201,1100.20585 C986.679477,1097.23292 985.819745,1094.31004 985,1091.42719 L1007.93287,1074 C1007.93287,1074 1076.80144,1185.66016 1098.11481,1290.73382 C1116.63905,1382.00386 1190.80597,1491.84222 1210,1519.14916" id="Fill-68" fill="#6A99A7"></path>
        <path d="M1010.64943,1299.95411 C1011.04047,1351.01491 1008.45363,1468.39973 1001.78601,1517 L977.050644,1517 C963.374502,1517 956.556485,1516.79996 956.556485,1516.79996 C939.832288,1432.30209 927.940863,1362.38731 919.27797,1302.13457 C912.169184,1252.69412 905.852491,1210.31516 900.999667,1173.81745 C896.106737,1137.09968 892.707754,1106.35318 891.484522,1080.37769 C891.304045,1076.28683 891.163674,1072.30598 891.083462,1068.44517 C891.00325,1064.56435 890.983197,1060.78355 891.013277,1057.12277 L1026,1044 C1024.2955,1133.45891 1010.42885,1270.27784 1010.64943,1299.95411" id="Fill-69" fill="#89BCCB"></path>
        <path d="M977,1518 C963.414343,1518 956.641434,1517.79978 956.641434,1517.79978 C940.027888,1433.22883 928.215139,1363.25357 919.609562,1302.94871 C912.547809,1253.46549 906.272908,1211.04987 901.452191,1174.52058 C896.591633,1137.77106 893.215139,1106.99796 892,1081 L941.203187,1110.09129 C941.203187,1110.09129 909.798805,1121.22326 921.780876,1205.51392 C933.762948,1289.81458 960.316733,1506.06717 977,1518" id="Fill-70" fill="#6A99A7"></path>
        <path d="M982.921701,1079.73463 C982.921701,1079.73463 973.42802,1113.98357 940.580684,1109.61498 C907.723333,1105.2364 861,1085.56275 861,1085.56275 C861,1085.56275 875.040233,1041.27706 892.501397,983.095847 C913.631848,912.658596 939.799558,821.847926 952.127323,764.573424 C955.592317,748.524607 957.955723,735.120936 958.836993,725.523036 L986.446781,673 C986.446781,673 1026.73484,763.786678 1028.928,786.744263 C1031.11115,809.702848 982.921701,1079.73463 982.921701,1079.73463" id="Fill-71" fill="#B64C41"></path>
        <path d="M981.970731,834.423879 C980.498567,871.683123 971.745706,943.987497 893.620912,982.699441 C893.410603,982.799628 893.200294,982.909832 893,983 C914.131049,912.40881 940.2995,821.399674 952.627615,764 C966.978702,785.452869 982.771908,813.916768 981.970731,834.423879" id="Fill-72" fill="#AA413E"></path>
        <path d="M1763.88951,1605.70689 C1763.50044,1609.86858 1761.18597,1612.54679 1757.50478,1614.13978 C1757.4948,1614.14974 1757.46487,1614.1597 1757.44492,1614.1597 C1750.64119,1617.12664 1739.22849,1616.44962 1726.89797,1614.79689 C1725.32174,1614.58781 1723.89515,1614.4086 1722.62818,1614.29908 C1722.289,1614.26921 1721.95978,1614.23935 1721.63057,1614.21943 C1721.37119,1614.19952 1721.11181,1614.17961 1720.87238,1614.1597 C1708.59175,1613.35324 1709.54946,1617.11669 1686.08557,1616.99721 C1659.33954,1616.84787 1650.29118,1607.87734 1649.06411,1604.06412 C1648.02659,1600.8184 1659.73858,1598.30944 1672.83726,1595.42214 C1673.46575,1595.28276 1674.10423,1595.13341 1674.7427,1594.99403 C1676.48853,1594.61569 1678.24433,1594.20749 1679.98018,1593.81919 C1695.59284,1590.17523 1711.04588,1585.58542 1716.15367,1570.67105 C1721.57071,1554.85066 1713.80927,1508.63401 1713.80927,1508.63401 L1757.69432,1505 C1757.69432,1505 1754.98081,1557.66826 1756.28769,1572.60255 C1756.996,1580.58741 1761.07624,1584.9781 1762.55271,1591.88769 C1762.66244,1592.37555 1762.76221,1592.8634 1762.85199,1593.3413 C1763.57027,1597.39347 1764.27858,1601.53524 1763.88951,1605.70689" id="Fill-73" fill="#AD7041"></path>
        <path d="M1758.01449,1533.54959 C1758.01449,1533.54959 1746.70254,1538.90357 1738.56113,1540.53478 C1730.41973,1542.16599 1713.49681,1538.98363 1713.49681,1538.98363 C1710.44629,1504.75821 1703.35507,1451.22846 1689.58269,1390.83361 C1673.88999,1322.07255 1650.54597,1240.8122 1618.00036,1163.86506 C1611.04916,1147.43285 1582.38422,1069.64509 1577.52338,1050.01051 C1562.81085,990.706466 1577.58339,997.091207 1577.58339,997.091207 L1706.15555,982 C1706.15555,982 1721.98828,990.146049 1729.28954,1073.89825 C1731.46991,1098.97687 1731.73996,1207.2773 1735.03052,1227.81255 C1738.14106,1247.25699 1741.79169,1263.41899 1746.07243,1273.92679 C1769.95654,1332.59036 1758.01449,1533.54959 1758.01449,1533.54959" id="Fill-74" fill="#415DA5"></path>
        <path d="M1763.88888,1605.9228 C1763.49758,1610.12722 1761.14978,1612.82513 1757.43745,1614.43994 C1757.42742,1614.44978 1757.40735,1614.45963 1757.38729,1614.45963 C1750.1332,1617.02954 1738.79555,1616.47814 1726.59504,1615.03072 C1725.00978,1614.83379 1723.56498,1614.69594 1722.26065,1614.60733 C1721.92955,1614.57779 1721.58842,1614.54825 1721.26735,1614.52855 C1721.00648,1614.49902 1720.74562,1614.48917 1720.48475,1614.46948 C1710.58187,1613.81961 1709.21734,1616.12367 1696.92652,1617 L1677.42176,1617 C1656.58256,1615.33596 1649.17797,1607.74439 1648.06427,1604.308 C1647.02081,1601.03899 1658.84006,1598.50847 1672.0439,1595.59393 C1675.52546,1597.28751 1692.14063,1604.77078 1712.79923,1602.77196 C1730.96957,1601.03899 1749.52117,1593.80189 1762.55445,1592 C1762.66481,1592.49232 1762.75511,1592.97479 1762.84541,1593.46711 C1763.56781,1597.54352 1764.28018,1601.71839 1763.88888,1605.9228" id="Fill-75" fill="#B84C42"></path>
        <path d="M1611.88366,1606.25188 C1611.48501,1610.5452 1609.15289,1613.30872 1605.47531,1614.98658 C1605.46535,1614.99645 1605.43545,1614.99645 1605.41551,1614.99645 C1598.20986,1617.64153 1586.97781,1617.10857 1574.89862,1615.66759 C1573.31397,1615.48006 1571.88879,1615.34189 1570.59316,1615.24319 C1570.25431,1615.21358 1569.92542,1615.18397 1569.59653,1615.16423 C1569.34737,1615.14449 1569.07828,1615.13462 1568.83909,1615.10501 C1561.14508,1614.60166 1558.64354,1615.94394 1552.06576,1617 L1519.4061,1617 C1503.84866,1614.40426 1498.01836,1608.01856 1497.06159,1604.90959 C1496.04503,1601.56376 1507.76543,1598.94828 1520.86118,1595.90841 C1524.29957,1597.65535 1540.76394,1605.25503 1561.25471,1603.15278 C1579.26387,1601.33675 1597.67168,1593.87525 1610.59801,1592 C1610.69767,1592.50336 1610.79733,1592.99684 1610.87706,1593.5002 C1611.58467,1597.67509 1612.28232,1601.94868 1611.88366,1606.25188" id="Fill-76" fill="#B84C42"></path>
        <path d="M1821.88898,983 L1830.05336,996.18212 C1834.29007,1001.0298 1835.42651,1003.75166 1838.78597,1005.39073 C1846.90051,1009.37417 1861.87353,1019.57616 1863,1041.01325 C1863,1041.01325 1862.75078,1053.14239 1854.5864,1049.21855 C1846.42201,1045.28477 1849.99081,1045.65232 1838.38722,1040.34769 C1826.78362,1035.05298 1822.4871,1018.2053 1821.47029,1012.46358 L1812,1000.07616 L1821.88898,983" id="Fill-77" fill="#AD7041"></path>
        <path d="M1561.40083,597.102068 C1557.05207,561.642188 1568.15444,504.90138 1639.06733,513.967349 C1709.98022,523.034318 1732.33527,592.589083 1718.02643,623.515979 C1703.72762,654.442874 1738.61793,661.900849 1749.56999,695.157737 C1758.97895,723.72864 1762.26558,759.20252 1777.49627,775.122466 C1826.58518,826.448293 1730.36129,905.378026 1672.34438,888.738082 C1566.68147,858.418185 1553.07405,853.8982 1556.8216,771.04248 C1558.74548,728.591623 1591.84217,712.144679 1570.82983,699.862721 C1520.06754,670.191821 1571.25068,677.340797 1561.40083,597.102068" id="Fill-78" fill="#AA443E"></path>
        <path d="M1680.85316,929.834523 C1695.33269,966.501279 1700.83772,999.051766 1700.83772,999.051766 L1543.74886,1001 C1543.74886,1001 1545.94485,875.114137 1538.70509,830.564528 C1531.46532,786.01492 1582.36428,688.083711 1582.36428,688.083711 C1583.29683,688.083711 1589.31325,686.984707 1599.94227,686.345287 C1601.75722,681.309852 1602.9204,676.184499 1603.63234,671.288938 C1605.17656,660.868386 1604.70527,651.506874 1604.2039,646.301593 C1603.93316,643.594048 1603.67245,642.015479 1603.67245,642.015479 L1654.99256,626.449592 L1656.47661,626 C1657.10833,639.907391 1657.89047,650.787526 1658.73277,659.299808 C1661.17945,684.137289 1664.10744,688.81305 1665.01993,689.692252 C1678.2661,691.640486 1692.9562,694.487904 1709,698.574199 C1709,698.574199 1666.37363,893.157777 1680.85316,929.834523" id="Fill-79" fill="#D9935C"></path>
        <path d="M1782.956,892.021319 C1775.09784,837.823323 1745.98763,726.533234 1726.42734,708.331757 C1709.12939,692.234531 1671.83068,690.759953 1671.83068,690.759953 C1671.83068,690.760954 1671.83068,690.760954 1671.83068,690.761956 L1671.82067,690.760954 C1664.07263,702.898943 1637.54511,733.05321 1604.63095,727.619396 C1586.87252,724.68926 1583.26878,692.751084 1582.86837,688.481515 L1582.98849,688 C1582.98849,688 1582.92843,688.00901 1582.82833,688.023025 C1582.82833,688.020021 1582.82833,688 1582.82833,688 C1582.69819,688.026028 1582.57807,688.052056 1582.44793,688.078084 C1577.26255,688.844904 1535.98972,695.56009 1523.75703,716.635642 C1505.66826,747.751939 1485.97783,841.126858 1466.63776,839.745379 C1457.75854,839.114704 1368.39581,805.524761 1368.39581,805.524761 C1368.39581,805.524761 1353.51037,819.473687 1356.36333,836.581994 C1356.36333,836.581994 1400.47911,866.133617 1437.79783,884.983788 C1442.96319,887.596584 1448.00843,889.999155 1452.77337,892.091394 C1466.22733,897.997714 1477.55909,901.421377 1483.74551,899.959813 C1485.52736,899.539364 1487.40931,898.738507 1489.37135,897.597285 C1497.45974,892.922283 1506.90955,882.651292 1515.96895,870.948769 C1521.98519,863.160435 1527.83126,854.751437 1532.99662,846.913049 C1533.10673,846.752878 1533.20684,846.592706 1533.31695,846.422524 C1535.52925,876.104286 1537.75155,908.408855 1535.44916,933.725946 C1533.69734,952.986556 1532.42603,994.691183 1535.72945,1005.47272 C1542.6166,1027.93676 1593.24914,1033.87311 1640.49817,1031.52059 C1662.77128,1030.41942 1678.50761,1029.14805 1689.95949,1026.50523 C1706.56673,1022.69115 1714.16461,1016.00399 1719.63028,1002.81988 C1724.8457,990.256438 1700.74068,931.283332 1698.4483,905.475716 C1696.35613,882.070671 1699.93985,863.030296 1705.84598,844.320275 C1722.52329,882.841496 1739.49089,910.400986 1741.7132,916.377381 C1746.39806,928.940825 1817.61196,1008.42588 1817.61196,1008.42588 C1817.61196,1008.42588 1823.36793,1007.24462 1827.93267,1004.26142 C1832.63755,1001.18814 1835,997.113776 1835,997.113776 C1822.42695,967.261832 1782.956,892.021319 1782.956,892.021319" id="Fill-80" fill="#EBBA56"></path>
        <path d="M1719.26243,1002.37524 C1713.79051,1015.52563 1706.18393,1022.19568 1689.55771,1026 C1667.31925,1021.73636 1652.6573,980.977163 1645.10084,960.917088 C1636.40188,937.791586 1681.73065,818.9289 1694.24792,820.007292 C1703.54819,820.816085 1705.15168,836.542625 1705.46236,844.281081 C1699.43924,863.132958 1695.94162,881.705253 1698.05622,905.280085 C1700.35122,931.021685 1724.48381,989.843936 1719.26243,1002.37524" id="Fill-81" fill="#E7A329"></path>
        <path d="M1369,815.145851 C1369,815.145851 1361.33203,796.481407 1352.89928,795.720348 C1344.46652,794.958289 1317.63869,790.767964 1315.71667,794.577259 C1313.80471,798.386554 1315.71667,812.098615 1321.47268,817.050998 C1327.21862,821.999381 1362.8616,830 1362.8616,830 L1369,815.145851" id="Fill-82" fill="#D9935C"></path>
        <path d="M1533,847.05189 C1527.84901,854.826387 1522.01922,863.166843 1516.01972,870.891694 C1507.40479,881.436413 1497.90142,891.633614 1489.49613,897.322996 C1487.53956,898.454915 1485.66284,899.249245 1483.88595,899.666267 C1477.71675,901.115918 1466.41652,897.720161 1453,891.861983 C1460.98602,892.447801 1468.82231,892.169786 1476.52882,891.514464 C1490.03519,890.372616 1493.95832,875.836393 1515.30097,854.032058 C1528.05865,841.00506 1531.93187,843.010741 1533,847.05189" id="Fill-83" fill="#E7A329"></path>
        <path d="M1048.55844,980 L1043.76975,979.711834 C1043.76975,979.572719 1044.63029,965.879855 1043.71913,951.33243 C1042.58523,932.969286 1039.12279,921.134598 1034,918.004517 L1036.54115,914 C1051.7374,923.280939 1048.93303,974.226739 1048.55844,980" id="Fill-84" fill="#415DA5"></path>
        <path d="M1656,629.30615 C1656,629.30615 1636.01557,665.211898 1603,672 C1604.54965,661.542112 1604.0767,652.147059 1603.57357,646.923128 C1603.30188,644.205882 1603.04025,642.621658 1603.04025,642.621658 L1654.54092,627 L1656,629.30615" id="Fill-85" fill="#CB8757"></path>
        <path d="M1106.64112,909.510871 C1104.11213,906.986147 1095.88541,907.934166 1095.88541,907.934166 L1062.65866,913.801905 C1062.65866,913.801905 1026.25318,905.409442 989.217949,892.955466 C981.630975,890.410783 974.303897,888.035746 967.646552,886 L959,934.678281 C962.718517,935.536488 966.64695,936.374736 970.7853,937.173068 C994.925673,941.803393 1025.26357,937.173068 1065.72744,937.173068 C1065.73743,937.173068 1081.59111,941.783434 1089.68788,939.228772 C1097.78465,936.674111 1109.17011,912.035596 1106.64112,909.510871" id="Fill-86" fill="#D9935C"></path>
        <path d="M989,892.721133 C983.323634,901.586902 973.863024,918.49883 970.539297,937 C931.925992,929.573544 911.833459,918.748711 902.853388,912.501692 C900.560817,910.322732 898.258234,908.133777 895.955652,905.934827 C876.531868,867.263283 894.754305,758.355262 894.754305,758.355262 C903.574196,716.038459 917.820173,697.700211 917.820173,697.700211 C940.615738,686.195702 986.296969,673.047977 986.397081,673 L959.907373,779.399219 L944.96061,879.867268 C954.531344,881.626428 971.05988,886.684014 989,892.721133" id="Fill-87" fill="#B64C41"></path>
        <path d="M1055.36238,978.091714 L989.309273,967.784036 C1005.97006,926.852676 1035.62145,906.576586 1035.95146,906.377018 L1030.63121,905 C1029.25115,905.888077 1000.99982,924.537689 984.419043,967.0157 L971.668444,965.03 C965.478154,964.062096 959.617878,968.322869 958.647833,974.499493 L950.137433,1028.8019 C949.167387,1034.97852 953.437588,1040.82586 959.627879,1041.79376 L1043.32181,1054.86545 C1049.5221,1055.82338 1055.38238,1051.56261 1056.34242,1045.38598 L1064.86282,991.083579 C1065.83287,984.906955 1061.55267,979.059618 1055.36238,978.091714" id="Fill-88" fill="#415DA5"></path>
        <path d="M1589.90606,646.060717 C1589.90606,646.060717 1652.77524,658.722084 1660.03552,619.340943 C1667.29579,579.960802 1680.30046,555.073082 1640.46868,545.324799 C1600.6369,535.576517 1590.03571,549.15391 1584.43093,561.706274 C1578.81619,574.260637 1573.73998,641.752592 1589.90606,646.060717" id="Fill-89" fill="#D9935C"></path>
        <path d="M1672.42757,547.646975 C1661.79046,535.609999 1646.11418,517.736579 1646.11418,517.736579 C1646.11418,517.736579 1614.84147,507.218142 1583.81822,537.955008 C1570.44699,551.197587 1572.46265,577.228388 1579.62724,592.333534 C1579.62724,592.333534 1590.62358,559.966797 1610.64051,552.906696 C1615.09093,551.334998 1619.32183,548.717174 1623.20348,545.60086 C1625.64822,551.754251 1630.54768,560.462278 1640.41644,571.296659 C1661.10194,594.029604 1657.07061,640 1657.07061,640 C1657.07061,640 1691.03753,568.680841 1672.42757,547.646975" id="Fill-90" fill="#AA443E"></path>
        <path d="M1610,626.916126 C1610,626.916126 1608.28464,631.558991 1596.24667,629.451126 C1596.24667,629.451126 1586.12706,627.683977 1587.06087,622.473915 C1587.06087,622.473915 1597.37333,619.858454 1610,626.916126" id="Fill-91" fill="#FFFFFF"></path>
        <path d="M1269,796.942023 C1228.57382,825.473499 1199.89456,838 1199.89456,838 C1199.89456,838 1156.42694,828.058649 1119.42113,805.719556 C1116.29991,799.11295 1114.60469,790.799546 1124.57661,789.140658 C1141.6286,786.296992 1186.1333,827.529642 1197.5013,826.112301 C1205.40903,825.124154 1245.38648,807.549124 1269,796.942023" id="Fill-92" fill="#AA413E"></path>
        <path d="M2873.90715,967 L2884.87383,970.416806 C2884.87383,970.416806 2914.32746,959.434931 2929.59714,990.186186 C2929.59714,990.186186 2934.95596,1003.35241 2924.72638,1003.89349 C2914.50675,1004.42455 2918.3416,1002.7412 2903.94847,1003.81333 C2889.55533,1004.88547 2875.91921,999.214169 2871.29746,989.665148 L2858,979.474849 L2873.90715,967" id="Fill-93" fill="#AB7041"></path>
        <path d="M2661,1617 L2559.22518,1617 C2558.7941,1616.89961 2558.44322,1616.77915 2558.18257,1616.65869 C2552.77904,1614.09887 2552.68881,1597.1639 2553.20009,1586.40261 C2553.45072,1581.19262 2553.8417,1577.42818 2553.8417,1577.42818 C2553.8417,1577.42818 2588.52855,1548.41688 2593.83183,1569.95953 C2594.84436,1574.0954 2596.72908,1577.76949 2599.23535,1581.02197 C2609.76171,1594.74462 2631.15528,1601.05884 2644.38841,1602.926 C2659.67669,1605.07425 2660.90977,1615.61469 2661,1617" id="Fill-94" fill="#233862"></path>
        <path d="M2658,1050.19446 C2658,1050.19446 2657.71002,1052.74526 2657.18006,1057.44674 C2655.0702,1075.99256 2649.18059,1128.04891 2642.35105,1189.1481 C2642.06107,1191.62888 2641.80109,1194.14967 2641.51111,1196.68047 C2638.5813,1222.8987 2635.50151,1250.56739 2632.48171,1277.80595 C2632.17173,1280.65684 2631.85175,1283.49774 2631.54178,1286.33863 C2629.43192,1305.38461 2627.38205,1324.1205 2625.43219,1341.90608 C2618.98262,1401.10468 2613.85296,1449.75996 2612.80303,1464.02444 C2609.60325,1507.97824 2601.19381,1580.60105 2601.19381,1580.60105 C2601.19381,1580.60105 2600.61385,1580.94116 2599.49393,1581.48133 C2594.28428,1583.97211 2577.46541,1590.67422 2553.57701,1586.84301 C2552.32709,1586.64295 2551.05718,1586.41288 2549.75726,1586.14279 C2549.75726,1586.14279 2541.44782,1554.27278 2533.26837,1507.48809 C2531.58848,1497.88507 2529.9186,1487.66186 2528.3187,1476.9485 C2525.92886,1460.97348 2523.71901,1443.90812 2521.92913,1426.26258 C2521.70915,1424.1019 2521.49916,1421.93122 2521.28918,1419.75053 C2519.99926,1406.08624 2518.96933,1392.12185 2518.30938,1378.06744 C2518.22938,1376.32689 2518.16938,1374.55634 2518.09939,1372.80579 C2517.9694,1369.48474 2517.84941,1366.07367 2517.68942,1362.55257 C2517.62942,1360.67198 2517.54943,1358.76138 2517.46943,1356.83077 L2517.40944,1354.88016 C2514.42964,1272.58431 2511.35984,1142.55347 2509.89994,1076.86283 C2509.60996,1064.19886 2509.37997,1053.92563 2509.22998,1046.85341 C2509.19999,1045.58301 2509.16999,1044.41264 2509.15999,1043.34231 C2509.05,1038.60082 2509,1036 2509,1036 L2602.8337,1044.93281 L2658,1050.19446" id="Fill-95" fill="#2B478B"></path>
        <path d="M2583.3561,1187.33076 C2575.26411,1251.18414 2542.08893,1411.66724 2528.35646,1477 C2525.97471,1461.03665 2523.77233,1443.98376 2521.98851,1426.35111 C2521.76926,1424.19201 2521.55999,1422.02292 2521.35071,1419.84383 C2520.06516,1406.18952 2519.03872,1392.23534 2518.38099,1378.19119 C2518.30127,1376.45192 2518.24147,1374.68265 2518.17172,1372.93338 C2518.04216,1369.61477 2517.92258,1366.20619 2517.76313,1362.68765 C2517.70334,1360.80844 2517.62361,1358.89923 2517.54389,1356.97004 L2517.4841,1355.02085 C2514.51437,1272.78513 2511.45496,1142.8493 2510,1077.20666 C2554.84478,1063.61233 2597.11847,1078.62607 2583.3561,1187.33076" id="Fill-96" fill="#233862"></path>
        <path d="M2517,1617 L2410.18136,1617 C2405.58959,1612.86413 2405.71935,1596.08978 2406.26837,1585.75011 C2406.53789,1580.87139 2406.89724,1577.42818 2406.89724,1577.42818 C2406.89724,1577.42818 2441.43537,1548.41688 2446.72589,1569.95953 C2448.2831,1576.31391 2451.88665,1581.58413 2456.60819,1585.92076 C2467.88798,1596.29055 2485.56631,1601.29977 2497.05573,1602.926 C2510.31198,1604.79317 2515.51266,1613.71741 2517,1617" id="Fill-97" fill="#233862"></path>
        <path d="M2597,1043.35157 C2597,1043.35157 2543.00447,1305.3209 2500.96459,1428.39408 C2458.92471,1551.46725 2458.39446,1585.65369 2458.39446,1585.65369 C2458.39446,1585.65369 2419.81622,1594.01526 2402.81818,1584.30343 C2402.81818,1584.30343 2393.11359,1350.9995 2418.54562,1289.03784 C2435.37357,1248.06012 2439.41549,1228.43642 2434.98339,1134.53874 C2433.49268,1102.85278 2435.41359,1035 2435.41359,1035 L2597,1043.35157" id="Fill-98" fill="#2B478B"></path>
        <path d="M2372.64846,1034 L2373.43446,1058.84141 C2373.43446,1058.84141 2350.06341,1085.72032 2373.27527,1117.18611 C2373.27527,1117.18611 2383.71216,1129.37095 2388.65699,1118.46081 C2393.59187,1107.55066 2390.29864,1110.9331 2397.56167,1095.72715 C2404.82471,1080.53123 2398.90483,1060.89898 2395.10418,1054.17424 L2396.15881,1034.22081 L2372.64846,1034" id="Fill-99" fill="#AB7041"></path>
        <path d="M2613,652.103678 C2603.82953,627.463326 2605.79099,612.176197 2605.79099,612.176197 L2550.65096,574 C2545.88172,621.157298 2537.58781,633.818503 2538.01595,652.406593 C2538.0259,652.651331 2559.91066,677.080045 2579.04738,677 C2597.42739,676.921567 2613.08923,652.343402 2613,652.103678" id="Fill-100" fill="#9C5F33"></path>
        <path d="M2883,966.924246 C2883,966.924246 2880.64158,973.035554 2877.07397,978.57674 C2873.27651,984.457998 2866.78085,988.048767 2866.78085,988.048767 C2866.78085,988.048767 2822.1707,964.453717 2785.75507,940.178523 C2782.83702,938.238107 2779.97894,936.297692 2777.2008,934.347275 C2763.03028,924.475162 2750.93837,914.803092 2744.48269,906.861393 C2743.70321,905.901187 2742.89375,904.870967 2742.06431,903.800738 C2721.46809,877.155035 2685.77198,816.013951 2685.77198,816.013951 C2685.77198,816.013951 2685.38224,818.492482 2684.73267,823.693595 C2684.73267,823.703597 2684.73267,823.703597 2684.73267,823.703597 C2683.24367,835.536129 2680.34561,861.411666 2677.40757,904.0908 C2673.01052,968.244529 2686.53147,1047.05139 2658.34033,1050.21207 C2528.6671,1064.74518 2485.73583,1052.83263 2444.9831,1043.3506 C2442.91449,1042.8605 2440.84587,1042.3904 2438.77725,1041.9203 C2431.18234,1040.20993 2425.54611,1034.10862 2427.60473,1026.59702 C2434.71997,1000.62146 2448.88049,947.440076 2451.06903,928.235967 C2454.46676,898.469597 2458.18427,818.602505 2458.72391,806.818983 C2458.77387,805.859778 2458.79386,805.35567 2458.79386,805.35567 L2458.12431,806.856992 L2458.11432,806.952012 C2457.52471,809.573573 2445.05306,865.932634 2440.73594,899.369789 C2437.30824,925.855457 2397.81467,1046.29123 2397.81467,1046.29123 L2372.46163,1045.37103 C2372.46163,1045.37103 2365.07657,915.833313 2375.88934,881.776024 C2379.8267,869.383372 2389.41029,674.217607 2444.56338,654.650419 C2461.00238,648.827173 2501.51527,637.077659 2540.14942,634 C2541.6684,652.341925 2566.67167,666.05786 2586.69827,666.05786 C2600.549,666.05786 2608.48369,659.202393 2612.35111,649.086228 C2661.88796,662.032999 2696.86455,672.716285 2713.00375,689.975979 C2761.0616,741.372978 2775.13218,825.704025 2800.61513,868.353152 C2817.0941,895.919051 2883,966.924246 2883,966.924246" id="Fill-101" fill="#739AF0"></path>
        <path d="M2618.64331,613.949705 C2618.64331,613.949705 2551.05838,617.024828 2549.78508,575.08434 C2548.51178,533.143852 2538.92698,505.295017 2582.01851,501.557943 C2625.12007,497.82087 2633.99304,513.571891 2637.83298,527.467854 C2641.68294,541.363817 2636.18872,612.068688 2618.64331,613.949705" id="Fill-102" fill="#AB7041"></path>
        <path d="M2884,1000.44884 C2884,1000.44884 2906.90302,1008.40349 2914.58056,1003.27982 C2922.26808,998.166115 2896.23422,994.497804 2896.02483,989.075084 C2895.80547,983.662332 2884,1000.44884 2884,1000.44884" id="Fill-103" fill="#AB7041"></path>
        <path d="M2547.54699,594 C2547.54699,594 2551.00545,591.372935 2537.55253,571.028691 C2524.10963,550.684447 2517.72401,556.266709 2517.56362,534.587924 C2517.3932,512.909139 2506.32612,493.066098 2531.53781,478.955379 C2556.74951,464.843661 2564.84933,462.131562 2579.97634,459.003294 C2595.09333,455.876027 2623.92388,460.207782 2632.89584,469.929722 C2649.1055,487.504844 2646.9803,532.775189 2638.4795,527.547071 C2629.98872,522.318952 2588.26663,509.705841 2584.6177,519.165674 C2580.9788,528.625508 2561.23047,586.690038 2547.54699,594" id="Fill-104" fill="#233862"></path>
        <path d="M2786,940 C2783.08624,938.062716 2754.45753,918.709853 2748.86949,911.260298 L2742.3734,903.680926 C2721.80743,877.078228 2686.16373,816.03582 2686.16373,816.03582 C2686.16373,816.03582 2685.77457,818.510351 2685.12595,823.703069 C2685.07606,823.093924 2683.04042,796.878682 2697.39968,809.369168 C2711.92857,822.015436 2757.12182,905.029036 2768.78685,920.647136 C2773.33711,926.728609 2779.80327,933.728793 2786,940" id="Fill-105" fill="#4A75CB"></path>
        <path d="M2493.3871,1021.80324 C2483.32095,1036.74276 2462.16515,1041.65275 2444.7059,1043 C2442.64895,1042.511 2440.592,1042.04195 2438.53505,1041.57291 C2430.98295,1039.86639 2425.37851,1033.77881 2427.42552,1026.2841 C2434.50064,1000.36696 2448.58132,947.305195 2450.75751,928.144279 C2454.13608,898.444859 2457.83263,818.757403 2458.36923,807 C2462.28439,806.962462 2484.45376,809.597088 2489.61105,873.395953 C2495.26518,943.463032 2512.13815,993.940071 2493.3871,1021.80324" id="Fill-106" fill="#4A75CB"></path>
        <path d="M3654.58989,1617 L108.411111,1617 C107.08505,1617 106,1618.11224 106,1619.45918 L106,1620.53061 C106,1621.88776 107.08505,1623 108.411111,1623 L3654.58989,1623 C3655.90995,1623 3657,1621.88776 3657,1620.53061 L3657,1619.45918 C3657,1618.11224 3655.90995,1617 3654.58989,1617" id="Fill-107" fill="#283250"></path>
    </g>
</svg>